<mxfile host="app.diagrams.net" modified="2024-01-02T17:14:27.330Z" agent="Mozilla/5.0 (Windows NT 10.0; Win64; x64) AppleWebKit/537.36 (KHTML, like Gecko) Chrome/120.0.0.0 Safari/537.36 Edg/120.0.0.0" etag="5BQ0l4ci4IaiQ4-L5ACN" version="22.1.16" type="device">
  <diagram name="Page-1" id="luqQbtrOzLT_vC3vuQmq">
    <mxGraphModel dx="1230" dy="817" grid="1" gridSize="10" guides="1" tooltips="1" connect="1" arrows="1" fold="1" page="1" pageScale="1" pageWidth="827" pageHeight="1169" math="0" shadow="0">
      <root>
        <mxCell id="0" />
        <mxCell id="1" parent="0" />
        <mxCell id="wA4fUjmSiFn5kelaJSix-3" style="edgeStyle=orthogonalEdgeStyle;rounded=0;orthogonalLoop=1;jettySize=auto;html=1;exitX=0.5;exitY=1;exitDx=0;exitDy=0;entryX=0.5;entryY=0;entryDx=0;entryDy=0;" edge="1" parent="1" source="wA4fUjmSiFn5kelaJSix-1" target="wA4fUjmSiFn5kelaJSix-2">
          <mxGeometry relative="1" as="geometry" />
        </mxCell>
        <mxCell id="wA4fUjmSiFn5kelaJSix-1" value="Bắt đầu" style="ellipse;whiteSpace=wrap;html=1;" vertex="1" parent="1">
          <mxGeometry x="354" y="160" width="120" height="80" as="geometry" />
        </mxCell>
        <mxCell id="wA4fUjmSiFn5kelaJSix-5" style="edgeStyle=orthogonalEdgeStyle;rounded=0;orthogonalLoop=1;jettySize=auto;html=1;exitX=0.5;exitY=1;exitDx=0;exitDy=0;entryX=0.5;entryY=0;entryDx=0;entryDy=0;" edge="1" parent="1" source="wA4fUjmSiFn5kelaJSix-2" target="wA4fUjmSiFn5kelaJSix-4">
          <mxGeometry relative="1" as="geometry" />
        </mxCell>
        <mxCell id="wA4fUjmSiFn5kelaJSix-2" value="Nhập ID vân tay&lt;br&gt;&amp;nbsp;cần xóa" style="shape=parallelogram;perimeter=parallelogramPerimeter;whiteSpace=wrap;html=1;fixedSize=1;" vertex="1" parent="1">
          <mxGeometry x="354" y="270" width="120" height="60" as="geometry" />
        </mxCell>
        <mxCell id="wA4fUjmSiFn5kelaJSix-8" style="edgeStyle=orthogonalEdgeStyle;rounded=0;orthogonalLoop=1;jettySize=auto;html=1;exitX=0.5;exitY=1;exitDx=0;exitDy=0;entryX=0.5;entryY=0;entryDx=0;entryDy=0;" edge="1" parent="1" source="wA4fUjmSiFn5kelaJSix-4" target="wA4fUjmSiFn5kelaJSix-6">
          <mxGeometry relative="1" as="geometry" />
        </mxCell>
        <mxCell id="wA4fUjmSiFn5kelaJSix-12" style="edgeStyle=orthogonalEdgeStyle;rounded=0;orthogonalLoop=1;jettySize=auto;html=1;exitX=1;exitY=0.5;exitDx=0;exitDy=0;entryX=0.5;entryY=0;entryDx=0;entryDy=0;" edge="1" parent="1" source="wA4fUjmSiFn5kelaJSix-4" target="wA4fUjmSiFn5kelaJSix-7">
          <mxGeometry relative="1" as="geometry">
            <Array as="points">
              <mxPoint x="494" y="400" />
              <mxPoint x="494" y="540" />
              <mxPoint x="414" y="540" />
            </Array>
          </mxGeometry>
        </mxCell>
        <mxCell id="wA4fUjmSiFn5kelaJSix-4" value="Vân tay có tồn tại" style="rhombus;whiteSpace=wrap;html=1;" vertex="1" parent="1">
          <mxGeometry x="354" y="360" width="120" height="80" as="geometry" />
        </mxCell>
        <mxCell id="wA4fUjmSiFn5kelaJSix-9" style="edgeStyle=orthogonalEdgeStyle;rounded=0;orthogonalLoop=1;jettySize=auto;html=1;exitX=0.5;exitY=1;exitDx=0;exitDy=0;" edge="1" parent="1" source="wA4fUjmSiFn5kelaJSix-6">
          <mxGeometry relative="1" as="geometry">
            <mxPoint x="414" y="560" as="targetPoint" />
          </mxGeometry>
        </mxCell>
        <mxCell id="wA4fUjmSiFn5kelaJSix-6" value="Xóa vân tay" style="rounded=0;whiteSpace=wrap;html=1;" vertex="1" parent="1">
          <mxGeometry x="354" y="470" width="120" height="60" as="geometry" />
        </mxCell>
        <mxCell id="wA4fUjmSiFn5kelaJSix-11" style="edgeStyle=orthogonalEdgeStyle;rounded=0;orthogonalLoop=1;jettySize=auto;html=1;exitX=0.5;exitY=1;exitDx=0;exitDy=0;entryX=0.5;entryY=0;entryDx=0;entryDy=0;" edge="1" parent="1" source="wA4fUjmSiFn5kelaJSix-7" target="wA4fUjmSiFn5kelaJSix-10">
          <mxGeometry relative="1" as="geometry" />
        </mxCell>
        <mxCell id="wA4fUjmSiFn5kelaJSix-7" value="Thông báo lên màn hình" style="rounded=0;whiteSpace=wrap;html=1;" vertex="1" parent="1">
          <mxGeometry x="354" y="562" width="120" height="60" as="geometry" />
        </mxCell>
        <mxCell id="wA4fUjmSiFn5kelaJSix-10" value="Kết thúc" style="ellipse;whiteSpace=wrap;html=1;" vertex="1" parent="1">
          <mxGeometry x="354" y="650" width="120" height="80" as="geometry" />
        </mxCell>
        <mxCell id="wA4fUjmSiFn5kelaJSix-13" value="F" style="text;html=1;align=center;verticalAlign=middle;resizable=0;points=[];autosize=1;strokeColor=none;fillColor=none;" vertex="1" parent="1">
          <mxGeometry x="465" y="370" width="30" height="30" as="geometry" />
        </mxCell>
        <mxCell id="wA4fUjmSiFn5kelaJSix-14" value="T" style="text;html=1;align=center;verticalAlign=middle;resizable=0;points=[];autosize=1;strokeColor=none;fillColor=none;" vertex="1" parent="1">
          <mxGeometry x="415" y="438" width="30" height="30" as="geometry" />
        </mxCell>
      </root>
    </mxGraphModel>
  </diagram>
</mxfile>
